<?xml version="1.0" encoding="utf-8"?>
<!-- Generator: Adobe Illustrator 16.0.0, SVG Export Plug-In . SVG Version: 6.00 Build 0)  -->
<!DOCTYPE svg PUBLIC "-//W3C//DTD SVG 1.1//EN" "http://www.w3.org/Graphics/SVG/1.1/DTD/svg11.dtd">
<svg version="1.1" id="Layer_1" xmlns="http://www.w3.org/2000/svg" xmlns:xlink="http://www.w3.org/1999/xlink" x="0px" y="0px"
	 width="520.474px" height="259.487px" viewBox="0 0 520.474 259.487" enable-background="new 0 0 520.474 259.487"
	 xml:space="preserve">
<rect x="216.255" y="34.327" fill="none" stroke="#000000" stroke-width="6.0199" stroke-miterlimit="2.6131" width="77.465" height="65"/>
<path fill-rule="evenodd" clip-rule="evenodd" d="M235.951,80.597c10.72,4.688,26.505,4.241,34.845-0.023
	c0.188-0.4,0.26,0.989,0.234,1.107c-0.871,4.924-16.443,8.34-28.978,5.136C238.212,85.544,235.597,83.754,235.951,80.597z
	 M226.056,59.535c-0.542-0.094-0.895,0.142-0.872,0.754c0.283,10.603,5.089,15.762,10.06,18.683
	c10.225,5.184,24.974,5.325,35.835-0.07c7.68-4.265,11.355-11.214,12.816-19.036c-0.049-0.612-0.543-0.094-1.107,0.095
	c-3.889,1.508-9.59,3.91-15.385,4.358C256.165,65.425,236.257,65.496,226.056,59.535z M231.804,55.483
	c8.128-2.851,20.662-3.699,26.599-3.393c0.424,0,4.523,0.094,3.676,0.565c-5.844,2.709-6.127,3.181-14.678,7.633
	C245.115,60.03,230.25,59.511,231.804,55.483z M249.474,60.312c9.896-4.358,19.555-11.614,29.592-16.114
	c2.238-1.226,3.65,2.285,2.992,2.992c-5.254,4.028-14.137,9.023-19.932,12.863C261.678,60.43,252.019,60.572,249.474,60.312z
	 M283.636,45.894c-0.848-1.131-1.131-1.955-2.262-2.969c-0.566-0.659-0.141-2.45,1.885-1.932c2.379,1.061,3.063,3.063,2.615,4.688
	C285.38,46.153,284.53,46.695,283.636,45.894z M264.528,60.195c8.316-5.749,9.141-5.772,9.518-5.961
	c1.084,0.4,2.734,1.555,2.664,2.545C276.874,58.168,267.261,59.747,264.528,60.195z M266.343,49.122
	c1.648,0.047-1.225,1.461-2.426,2.168c-5.02-0.73-25.987-0.26-33.432,3.863c-0.636,1.791-0.424,1.814,1.154,3.228
	c12.534,4.43,36.258,3.534,43.844,0.801c6.881-2.474-1.131-7.091-0.848-5.843c0.189-0.188,2.615-1.555,3.016-1.955
	c1.107-0.023,3.252,1.932,4.193,2.615c2.852,2.026,1.932,3.558-1.201,5.254c-4.076,1.578-7.162,2.544-11.426,3.346
	c-3.629,0.659-19.603,1.908-29.709-0.118c-5.819-1.154-13.594-2.733-14.065-5.749c-0.307-1.979,1.484-3.439,2.921-4.17
	c2.097-1.06,4.971-1.625,7.657-2.285C243.984,48.297,258.309,47.449,266.343,49.122z M271.856,82.859
	c0.354-1.107,0.471-2.144,0.611-3.251c5.984-3.534,12.039-12.439,13.076-20.12c0.117-3.816-0.801-5.843-3.91-7.586
	c-1.154-0.612-2.215-1.461-2.051-1.673c1.131-0.73,2.262-1.767,3.463-2.38c0.283-0.354,1.25,0.071,1.957,0
	c2.166-0.165,2.496-1.673,2.473-3.251c-0.07-2.403-2.332-5.042-5.111-4.971c-0.803,0.023-2.074,0.636-2.404,1.319
	c-0.377,0.754-0.541,0.777-0.447,1.484c-2.074,1.767-8.01,4.335-10.814,5.678c-0.211,0.212-1.178,0-1.508,0.023
	c-5.088-0.777-9.377-0.684-14.771-0.565c-3.252,0.07-6.856,0.212-10.225,0.612c-3.581,0.424-7.421,1.438-11.096,2.309
	c-6.573,1.861-6.833,4.1-7.327,8.718c0.118,10.955,4.429,17.292,10.696,20.873c-0.33,1.626,1.107,4.1,2.851,5.349
	C244.927,90.798,266.507,89.998,271.856,82.859z"/>
<path fill="none" stroke="#000000" stroke-width="0.6095" stroke-miterlimit="2.6131" d="M235.951,80.597
	c10.72,4.688,26.505,4.241,34.845-0.023c0.188-0.4,0.26,0.989,0.234,1.107c-0.871,4.924-16.443,8.34-28.978,5.136
	C238.212,85.544,235.597,83.754,235.951,80.597z M226.056,59.535c-0.542-0.094-0.895,0.142-0.872,0.754
	c0.283,10.603,5.089,15.762,10.06,18.683c10.225,5.184,24.974,5.325,35.835-0.07c7.68-4.265,11.355-11.214,12.816-19.036
	c-0.049-0.612-0.543-0.094-1.107,0.095c-3.889,1.508-9.59,3.91-15.385,4.358C256.165,65.425,236.257,65.472,226.056,59.535z
	 M231.804,55.483c8.128-2.874,20.662-3.699,26.623-3.393c0.4,0,4.5,0.094,3.652,0.565c-5.844,2.709-6.127,3.181-14.678,7.633
	C245.115,60.03,230.25,59.511,231.804,55.483z M249.474,60.312c9.896-4.358,19.555-11.614,29.592-16.114
	c2.238-1.226,3.65,2.285,2.992,2.992c-5.254,4.028-14.137,9.023-19.932,12.863C261.678,60.43,252.019,60.572,249.474,60.312z
	 M283.636,45.894c-0.848-1.131-1.131-1.955-2.262-2.969c-0.566-0.659-0.141-2.45,1.885-1.932c2.379,1.061,3.063,3.063,2.615,4.688
	C285.38,46.153,284.53,46.695,283.636,45.894z M264.528,60.195c8.34-5.749,9.141-5.772,9.518-5.961
	c1.084,0.4,2.734,1.555,2.664,2.545C276.874,58.168,267.261,59.747,264.528,60.195z M266.343,49.122
	c1.648,0.047-1.225,1.461-2.426,2.168c-5.02-0.73-25.987-0.26-33.432,3.863c-0.636,1.791-0.424,1.814,1.154,3.228
	c12.534,4.43,36.258,3.534,43.844,0.801c6.881-2.474-1.131-7.091-0.848-5.843c0.189-0.188,2.615-1.555,3.016-1.955
	c1.107-0.023,3.252,1.932,4.193,2.615c2.852,2.026,1.932,3.558-1.178,5.254c-4.1,1.578-7.186,2.544-11.449,3.346
	c-3.629,0.659-19.603,1.908-29.709-0.118c-5.819-1.154-13.594-2.733-14.065-5.749c-0.307-2.002,1.484-3.439,2.921-4.17
	c2.097-1.06,4.971-1.625,7.657-2.285C243.984,48.297,258.309,47.449,266.343,49.122z M271.856,82.859
	c0.354-1.107,0.471-2.144,0.611-3.251c5.984-3.534,12.039-12.439,13.076-20.12c0.117-3.816-0.801-5.843-3.91-7.586
	c-1.154-0.612-2.215-1.461-2.051-1.673c1.131-0.73,2.262-1.767,3.463-2.38c0.283-0.354,1.25,0.048,1.957,0
	c2.166-0.165,2.496-1.673,2.473-3.251c-0.07-2.403-2.332-5.042-5.111-4.971c-0.803,0.023-2.074,0.636-2.404,1.319
	c-0.377,0.754-0.541,0.777-0.447,1.484c-2.074,1.767-8.01,4.335-10.814,5.678c-0.211,0.212-1.178,0-1.508,0.023
	c-5.088-0.777-9.377-0.684-14.771-0.565c-3.228,0.07-6.856,0.212-10.225,0.612c-3.581,0.424-7.421,1.438-11.096,2.309
	c-6.573,1.861-6.833,4.1-7.327,8.718c0.118,10.955,4.429,17.292,10.696,20.873c-0.33,1.626,1.107,4.1,2.851,5.349
	C244.927,90.798,266.507,89.998,271.856,82.859z"/>
<path fill="none" stroke="#000000" stroke-width="1.52" stroke-miterlimit="2.6131" d="M244.597,72.375
	c8.741,1.532,16.539-2.591,24.361-2.803"/>
<path fill="none" stroke="#000000" stroke-width="1.52" stroke-miterlimit="2.6131" d="M255.835,72.234
	c0.4,2.12-0.824,4.075-3.723,4.641c-0.471,1.226,3.157,2.45,4.76,3.676"/>
<path fill="none" stroke="#000000" stroke-width="1.52" stroke-miterlimit="2.6131" d="M262.456,72.823
	c-3.417,1.743-1.532,6.385,2.262,3.274l1.248-2.709c13.547-2.168-0.871,15.926-14.89,9.117"/>
<path fill="none" stroke="#000000" stroke-width="1.52" stroke-miterlimit="2.6131" d="M237.859,76.875l6.196-0.966
	c-5.042,3.039-0.542,5.112,2.686,3.699"/>
<line fill="none" stroke="#000000" stroke-width="1.52" stroke-miterlimit="2.6131" x1="247.142" y1="73.011" x2="247.142" y2="82.505"/>
<line fill="none" stroke="#000000" stroke-width="1.52" stroke-miterlimit="2.6131" x1="265.353" y1="70.49" x2="265.353" y2="79.208"/>
<path d="M306.37,22.947h2.238c1.061,0,1.791-0.165,2.191-0.471c0.377-0.33,0.59-0.73,0.59-1.272c0-0.33-0.096-0.636-0.307-0.896
	c-0.166-0.282-0.424-0.471-0.777-0.612c-0.33-0.118-0.943-0.188-1.861-0.188h-2.074V22.947z M304.509,29.402V17.953h3.936
	c1.342,0,2.309,0.094,2.92,0.306c0.59,0.212,1.084,0.589,1.438,1.107c0.354,0.542,0.543,1.107,0.543,1.696
	c0,0.825-0.307,1.555-0.896,2.168c-0.611,0.612-1.389,0.966-2.379,1.06c0.4,0.165,0.73,0.354,0.967,0.589
	c0.447,0.472,1.035,1.226,1.695,2.286l1.391,2.237h-2.262l-1.014-1.813c-0.801-1.414-1.438-2.309-1.932-2.662
	c-0.33-0.26-0.824-0.377-1.484-0.377h-1.061v4.853H304.509z M309.175,14.63c-1.484,0-2.945,0.4-4.359,1.154
	c-1.414,0.777-2.521,1.861-3.322,3.275c-0.801,1.437-1.201,2.921-1.201,4.476c0,1.508,0.4,2.992,1.178,4.383
	c0.777,1.413,1.885,2.497,3.299,3.298c1.414,0.777,2.875,1.178,4.406,1.178s3.016-0.4,4.404-1.178
	c1.414-0.801,2.521-1.885,3.299-3.298c0.777-1.391,1.154-2.875,1.154-4.383c0-1.555-0.4-3.039-1.178-4.476
	c-0.801-1.414-1.908-2.498-3.322-3.275C312.118,15.031,310.659,14.63,309.175,14.63z M309.175,12.887
	c1.789,0,3.533,0.447,5.23,1.366c1.695,0.919,3.016,2.215,3.98,3.935c0.943,1.696,1.414,3.486,1.414,5.348
	c0,1.814-0.471,3.581-1.391,5.277c-0.941,1.696-2.262,2.992-3.934,3.935c-1.697,0.942-3.463,1.414-5.301,1.414
	s-3.605-0.472-5.301-1.414c-1.674-0.942-2.992-2.238-3.936-3.935c-0.941-1.696-1.414-3.463-1.414-5.277
	c0-1.861,0.473-3.651,1.438-5.348c0.943-1.72,2.285-3.016,3.982-3.935C305.64,13.334,307.384,12.887,309.175,12.887z"/>
<path fill="none" stroke="#000000" stroke-width="6.041" stroke-miterlimit="2.6131" d="M156.296,111.201h190.408
	c18.33,0,33.291,14.631,33.291,32.513s-14.961,32.536-33.291,32.536H156.296c-18.33,0-33.313-14.654-33.313-32.536
	S137.966,111.201,156.296,111.201z"/>
<path fill-rule="evenodd" clip-rule="evenodd" d="M323.146,165.223h12.957l3.275-10.083c0.471-1.202,1.131-1.226,1.719-0.754
	c2.074,1.625,6.291,10.271,8.859,10.932c3.086,0.824,6.102,0.141,7.68-0.896c2.498-1.649,4.547-6.62,3.158-7.351
	c-0.92-0.66-1.791,1.696-3.936-0.165c-1.084-0.942-6.479-7.986-6.738-8.788c-0.447-0.636-1.107-1.06-0.73-1.531
	c1.203-1.508,3.135-3.51,3.959-2.944c2.145,1.508,4.43,1.625,5.961,1.508c1.742-0.165,3.32-1.344,4.051-3.11
	c1.367-3.181-1.365-6.338-5.842-5.913c-1.625,0.165-3.559,0.989-5.113,2.732l-8.574,7.916c-2.262,0.896-1.697,0.235-1.508-0.589
	l1.648-5.937l4.547-15.432c0.26-0.825-0.094-1.296-1.131-1.296h-13.734c-1.508,0-1.227,1.178-0.85,1.413
	c2.074,1.249,2.875,3.629,2.357,5.207L323.146,165.223z"/>
<path fill-rule="evenodd" clip-rule="evenodd" d="M265.235,165.223c2.121-6.502,4.053-12.887,5.914-19.366
	c0.895-1.813,1.932-1.72,2.143-1.036c1.674,5.725,7.211,6.855,10.768,3.911c4.193-3.44,2.262-11.804-4.146-11.804
	c-2.779,0-4.383,0.801-6.855,2.262c0.07-0.307,0.164-0.636,0.26-0.966c0.234-0.849-0.119-1.296-1.156-1.296H258.45
	c-1.508,0-1.225,1.178-0.848,1.413c2.072,1.249,2.873,3.629,2.355,5.207l-7.422,21.675H265.235z"/>
<path fill-rule="evenodd" clip-rule="evenodd" d="M173.188,165.223h12.934l5.513-16.916c0.872-2.544,1.673-2.732,4.358-3.604
	c2.191-0.707,2.945,0.872,2.45,2.969c-0.754,3.228-2.144,7.846-2.403,9.165c-0.73,3.722,0.683,7.586,4.217,8.387
	c3.157,0.707,5.772,0.495,7.492-0.684c1.225-0.848,2.591-2.921,2.615-4.217c0.023-0.754-0.401-0.896-0.872-0.896
	c-0.259,0.023-0.942,0.472-1.767,0.048c-0.354-0.188-0.613-0.519-0.565-1.438c1.154-4.453,2.238-8.905,3.416-13.358
	c0.4-1.649,1.579-6.149-2.167-7.492c-3.699-1.131-6.149-0.117-10.083,1.626c-1.696,0.754-4.688,3.251-4.1,1.555l4.335-15.549
	c0.236-0.825-0.118-1.296-1.154-1.296h-13.711c-1.508,0-1.249,1.178-0.848,1.413c2.073,1.249,2.874,3.629,2.356,5.207
	L173.188,165.223z"/>
<path fill-rule="evenodd" clip-rule="evenodd" d="M140.558,149.603c0.424,7.846,3.416,13.994,10.696,15.455
	c8.128,1.603,14.937-1.437,18.777-7.044c0.754-1.249-0.542-2.285-1.461-1.391c-2.167,3.11-6.196,6.079-12.204,5.184
	c-4.406-0.66-4.5-2.686-3.393-7.469c1.908-8.245,4.17-13.829,7.445-21.934c1.437-3.958,3.77-6.361,7.774-5.065
	c2.121,0.707,6.997,5.23,7.751,7.092c0.471,1.154,1.296,0.471,1.296,0.447l-0.023-11.238c-1.296-0.848-2.097,2.687-3.723,2.592
	C156.367,114.9,139.663,132.782,140.558,149.603"/>
<path fill-rule="evenodd" clip-rule="evenodd" d="M304.509,157.025c-0.4,1.201-1.438,2.379-2.332,2.779
	c-3.063,1.461-7.092,0.802-6.102-2.851c1.131-4.264,2.426-8.198,3.887-12.298c1.061-4.5,5.443-6.196,7.563-2.262
	C309.175,145.433,305.782,154.009,304.509,157.025 M304.298,161.312c0.588,1.861,2.639,3.487,4.664,4.029
	c3.252,0.659,5.867,0.117,7.492-1.037c2.072-1.461,3.229-4.523,2.121-4.854c-0.896,0.095-1.861,0.495-2.428,0.142
	c-0.684-0.235-0.4-1.131-0.33-1.555c1.154-4.453,2.662-8.905,3.816-13.358l1.934-6.644c0.188-0.754-0.33-1.107-1.203-1.107h-9.047
	l-1.201,3.511c-0.895-0.825-2.732-4.736-10.838-3.605c-8.881,1.791-14.275,13.288-11.803,22.806
	c1.107,2.592,2.992,5.042,5.961,5.584C299.751,166.354,303.024,162.75,304.298,161.312z"/>
<path fill-rule="evenodd" clip-rule="evenodd" d="M233.831,157.025c-0.401,1.201-1.461,2.379-2.333,2.779
	c-3.086,1.461-7.091,0.802-6.102-2.851c1.131-4.264,2.427-8.198,3.887-12.298c1.037-4.5,5.442-6.196,7.563-2.262
	C238.495,145.433,235.103,154.009,233.831,157.025 M233.618,161.312c0.565,1.861,2.639,3.487,4.665,4.029
	c3.228,0.659,5.866,0.117,7.468-1.037c2.074-1.461,3.251-4.523,2.144-4.854c-0.919,0.095-1.861,0.495-2.45,0.142
	c-0.66-0.235-0.377-1.131-0.306-1.555c1.154-4.453,2.663-8.905,3.817-13.358l1.908-6.644c0.188-0.754-0.307-1.107-1.178-1.107
	h-9.047l-1.225,3.511c-0.896-0.825-2.709-4.736-10.814-3.605c-8.882,1.791-14.301,13.288-11.803,22.806
	c1.083,2.592,2.968,5.042,5.937,5.584C229.048,166.354,232.346,162.75,233.618,161.312z"/>
<path fill-rule="evenodd" clip-rule="evenodd" d="M494.069,219.858h-0.094c-2.498,2.12-4.336,3.651-5.537,4.523
	c-1.178,0.896-2.002,1.343-2.473,1.343c-1.014-0.424-1.814-1.131-2.428-2.144c-0.637-1.014-0.965-2.168-1.014-3.44
	c0-3.345,1.91-6.69,5.727-10.06c0.965-0.754,1.648-1.296,2.072-1.578c0.4-0.26,0.824-0.4,1.225-0.4c0.496,0,0.967,0.235,1.391,0.706
	c0.447,0.472,0.66,0.942,0.66,1.484c0,0.33-0.07,0.612-0.213,0.872c-0.635,1.06-1.625,2.285-2.945,3.698
	c-1.342,1.414-2.426,2.45-3.25,3.087c-0.377,0.306-0.66,0.777-0.896,1.461c-0.211,0.659-0.328,1.178-0.328,1.508
	c0,0.023,0.094,0.094,0.281,0.188c0.566-0.048,1.344-0.377,2.381-0.942c1.035-0.59,1.979-1.319,2.85-2.215
	c1.344-1.343,2.428-2.38,3.182-3.134c0.777-0.754,1.742-1.696,2.873-2.804c1.131-1.131,1.932-1.885,2.357-2.309
	c0.588-0.565,1.059-0.824,1.436-0.824c0.424,0,0.73,0.259,0.92,0.801c0.188,0.542,0.307,1.061,0.307,1.578
	c0,0.896-0.59,2.262-1.744,4.076l-7.115,10.767l0.094,0.118l10.391-9.565l0.447,1.79c-0.471,0.542-1.672,1.933-3.652,4.171
	c-1.979,2.262-3.627,4.146-4.994,5.678c-1.342,1.555-2.686,3.086-4.029,4.617c-1.318,1.508-2.379,2.78-3.227,3.746
	c-0.189,0.188-0.4,0.307-0.637,0.307c-0.33,0-0.635-0.307-0.941-0.872s-0.473-1.249-0.52-2.003c0.119-0.729,0.283-1.366,0.566-1.908
	L494.069,219.858z"/>
<path fill-rule="evenodd" clip-rule="evenodd" d="M312.825,219.646c0.473,0.094,0.777,0.235,0.967,0.424
	c0.188,0.212,0.283,0.519,0.283,0.942c0,1.272-0.377,2.545-1.131,3.793c-0.754,1.249-1.721,1.885-2.852,1.885
	c-1.768,0-2.732-0.659-2.898-2.002c0.166-1.319,0.637-2.521,1.391-3.605c0.754-1.083,1.697-1.625,2.852-1.625
	C311.741,219.458,312.214,219.504,312.825,219.646"/>
<path fill-rule="evenodd" clip-rule="evenodd" d="M298.831,219.646c0.447,0.094,0.754,0.235,0.943,0.424
	c0.211,0.212,0.307,0.519,0.307,0.942c0,1.272-0.402,2.545-1.131,3.793c-0.779,1.249-1.721,1.885-2.875,1.885
	c-1.768,0-2.709-0.659-2.875-2.002c0.166-1.319,0.637-2.521,1.391-3.605c0.73-1.083,1.695-1.625,2.826-1.625
	C297.724,219.458,298.196,219.504,298.831,219.646"/>
<path fill-rule="evenodd" clip-rule="evenodd" d="M284.813,219.646c0.471,0.094,0.777,0.235,0.967,0.424
	c0.188,0.212,0.281,0.519,0.281,0.942c0,1.272-0.377,2.545-1.131,3.793c-0.754,1.249-1.719,1.885-2.85,1.885
	c-1.768,0-2.732-0.659-2.898-2.002c0.189-1.319,0.637-2.521,1.391-3.605c0.754-1.083,1.695-1.625,2.85-1.625
	C283.729,219.458,284.2,219.504,284.813,219.646"/>
<path fill-rule="evenodd" clip-rule="evenodd" d="M268.628,214.934l-0.094-0.095c-0.801,0.212-1.744,0.425-2.828,0.66
	c-1.107,0.235-1.789,0.377-2.002,0.471c-0.447,0.707-0.895,1.343-1.391,1.908c-0.494,0.542-1.248,1.272-2.238,2.191
	c-0.988,0.896-1.672,1.531-2.002,1.861l-0.188-2.073c0.942-0.801,1.979-1.979,3.11-3.604c-0.872,0-1.297-0.448-1.297-1.319
	c0-1.014,0.472-2.215,1.414-3.558c0.943-1.343,2.168-2.474,3.699-3.393c0.377-0.118,0.684-0.188,0.895-0.188
	c0.473,0,0.73,0.307,0.73,0.872c0,0.353-0.117,0.801-0.354,1.319c0.967-0.142,1.98-0.26,3.016-0.401
	c1.014-0.164,1.791-0.259,2.309-0.329c0.52-0.071,0.92-0.095,1.227-0.095c0.635,0,1.107,0.33,1.389,1.014
	c0.283,0.659,0.426,1.39,0.426,2.19c0,0.448-0.025,0.754-0.096,0.872c-0.07,0.235-0.471,0.683-1.225,1.39
	c-0.754,0.73-1.344,1.296-1.768,1.72c-0.424,0.4-0.848,0.942-1.295,1.603c-0.637,1.225-0.99,2.12-1.061,2.662
	c0.094,0.471,0.236,0.777,0.471,0.989c0.189,0.188,0.52,0.33,0.967,0.424c1.178-0.07,3.369-1.555,6.502-4.476l0.307,1.861
	c-2.025,2.332-3.91,4.146-5.678,5.441c-1.744,1.296-3.063,1.979-3.959,2.05c-0.801,0-1.484-0.306-2.119-0.895
	c-0.637-0.59-1.014-1.461-1.154-2.568c0-1.484,0.354-2.851,1.061-4.076C266.13,218.115,267.19,216.63,268.628,214.934"/>
<path fill-rule="evenodd" clip-rule="evenodd" d="M236.021,221.107c-0.966,1.106-2.121,2.214-3.463,3.274s-2.403,1.814-3.204,2.215
	c-0.448,0.188-0.895,0.306-1.343,0.306c-0.801,0-1.531-0.354-2.191-1.013c-0.684-0.684-1.202-1.578-1.602-2.709
	c-0.377-1.131-0.589-2.31-0.589-3.534c0-1.461,0.283-2.945,0.825-4.453s1.319-2.874,2.309-4.075
	c1.013-1.226,2.144-2.121,3.439-2.733c0.118-0.07,0.424-0.094,0.896-0.094c1.696,0,2.544,0.4,2.544,1.201
	c0,0.707-0.401,1.649-1.202,2.874c-0.801,1.249-1.696,2.403-2.662,3.511c-0.99,1.107-1.649,1.767-2.026,1.979
	c-0.4,1.061-0.66,2.121-0.754,3.157c0.071,0.849,0.33,1.39,0.754,1.603c0.73,0,1.767-0.519,3.11-1.579
	c1.343-1.06,2.427-2.05,3.251-2.992c0-1.225,0.283-2.332,0.824-3.298c0.565-0.966,1.484-2.262,2.709-3.888
	c1.225-1.649,2.379-2.474,3.44-2.474c0.424,0,0.777,0.165,0.966,0.495c0.235,0.306,0.33,0.683,0.33,1.107
	c0,0.777-0.306,1.767-0.918,2.968c-0.73,1.531-1.696,3.299-2.898,5.301c0.4,0.354,0.872,0.565,1.46,0.66
	c0.848-0.07,2.215-0.73,4.076-1.979l0.283,1.979c-1.367,1.767-3.275,2.969-5.678,3.604
	C238.118,222.45,237.223,221.978,236.021,221.107"/>
<path fill-rule="evenodd" clip-rule="evenodd" d="M199.41,214.934l-0.094-0.095c-0.801,0.212-1.743,0.425-2.851,0.66
	s-1.767,0.377-2.002,0.471c-0.424,0.707-0.896,1.343-1.367,1.908c-0.518,0.542-1.249,1.272-2.238,2.191
	c-0.99,0.896-1.673,1.531-2.026,1.861l-0.188-2.073c0.966-0.801,2.002-1.979,3.11-3.604c-0.848,0-1.296-0.448-1.296-1.319
	c0-1.014,0.471-2.215,1.414-3.558s2.191-2.474,3.723-3.393c0.377-0.118,0.66-0.188,0.872-0.188c0.495,0,0.754,0.307,0.754,0.872
	c0,0.353-0.141,0.801-0.377,1.319c0.99-0.142,2.002-0.26,3.016-0.401c1.037-0.164,1.814-0.259,2.333-0.329
	c0.518-0.071,0.919-0.095,1.202-0.095c0.66,0,1.131,0.33,1.39,1.014c0.307,0.659,0.448,1.39,0.448,2.19
	c0,0.448-0.047,0.754-0.094,0.872c-0.071,0.235-0.495,0.683-1.249,1.39c-0.754,0.73-1.343,1.296-1.744,1.72
	c-0.424,0.4-0.848,0.942-1.295,1.603c-0.66,1.225-1.013,2.12-1.061,2.662c0.071,0.471,0.236,0.777,0.448,0.989
	c0.212,0.188,0.542,0.33,0.99,0.424c1.178-0.07,3.345-1.555,6.502-4.476l0.283,1.861c-2.003,2.332-3.888,4.146-5.654,5.441
	c-1.744,1.296-3.086,1.979-3.982,2.05c-0.777,0-1.484-0.306-2.097-0.895c-0.636-0.59-1.013-1.461-1.154-2.568
	c0-1.484,0.354-2.851,1.06-4.076C196.889,218.115,197.949,216.63,199.41,214.934"/>
<path fill-rule="evenodd" clip-rule="evenodd" d="M159.288,234.559c1.225-0.73,2.309-1.885,3.251-3.439
	c0.942-1.531,1.414-3.157,1.414-4.854c0-0.307-0.023-0.66-0.094-1.084c-0.471,0-0.848,0.047-1.154,0.118
	c-0.942-0.118-1.649-0.307-2.097-0.612c-1.438,2.803-2.215,4.876-2.286,6.29C158.393,232.014,158.723,233.216,159.288,234.559
	 M157.568,223.085c-0.966-1.225-1.437-2.262-1.437-3.063c0-0.849,0.33-1.555,1.013-2.097s1.579-1.084,2.709-1.579
	c0.754-0.354,1.484-0.989,2.144-1.885c0.66-0.942,1.579-2.474,2.757-4.664c1.154-2.191,2.167-4.029,3.039-5.561
	c0.848-1.508,1.932-3.181,3.228-4.994c0.471-0.59,1.013-1.202,1.673-1.791c0.66-0.612,1.178-0.919,1.625-0.919
	c0.589,0,0.896,0.684,0.896,2.097c-0.047,1.249-0.33,2.498-0.872,3.746c-0.542,1.249-1.131,2.356-1.791,3.322
	c-0.636,0.989-1.908,2.804-3.77,5.489c-1.885,2.686-3.463,4.994-4.735,6.95c0.636,0.33,1.084,0.754,1.343,1.272
	c0.259,0.494,0.636,1.343,1.131,2.521l6.267-4.076l0.518,1.696c-1.861,2.026-3.84,3.604-5.984,4.76
	c0.094,0.777,0.165,1.343,0.165,1.696c0,2.002-0.613,3.958-1.814,5.843c-1.201,1.885-2.639,3.439-4.311,4.688
	c-1.696,1.202-3.157,1.885-4.382,2.003c-0.848,0-1.508-0.636-1.956-1.932c-0.471-1.296-0.707-2.592-0.707-3.958
	s0.283-2.804,0.848-4.218C155.707,227.02,156.508,225.229,157.568,223.085z"/>
<path fill-rule="evenodd" clip-rule="evenodd" d="M182.683,213.473c-2.215,1.249-3.911,2.403-5.089,3.534
	c-1.178,1.107-1.814,2.544-1.885,4.288c0,1.248,0.66,1.908,1.908,2.002c1.367-0.142,2.639-0.801,3.817-2.002
	c-0.401-0.707-0.636-1.438-0.73-2.191C180.774,217.643,181.434,215.758,182.683,213.473 M186.617,211.258
	c1.131,0.142,1.72,1.037,1.72,2.71c0,1.72-0.613,3.675-1.814,5.795c0.235,0,0.424,0.024,0.542,0.095
	c0.589-0.047,1.202-0.283,1.838-0.73c0.612-0.424,1.39-1.084,2.309-2.003l0.565,2.098c-1.107,1.531-2.214,2.544-3.369,3.086
	c-1.178,0.542-2.544,0.824-4.17,0.872c-2.262,2.355-4.547,3.51-6.785,3.51c-1.672,0-2.968-0.707-3.864-2.12
	c-0.895-1.414-1.343-3.063-1.343-4.924c0-2.05,0.636-3.935,1.932-5.701c1.272-1.791,2.921-3.181,4.9-4.218
	c2.002-1.013,3.958-1.531,5.913-1.531c1.72,0,2.592,0.495,2.592,1.508C187.583,210.292,187.253,210.811,186.617,211.258z"/>
<path fill-rule="evenodd" clip-rule="evenodd" d="M211.943,217.125c1.414-0.541,2.639-1.201,3.675-1.955
	c1.061-0.754,1.838-1.508,2.403-2.215c0.542-0.73,0.825-1.271,0.825-1.648c0-0.118-0.024-0.213-0.047-0.26s-0.047-0.07-0.071-0.094
	c-0.824,0-1.979,0.542-3.369,1.602C213.922,213.615,212.792,215.146,211.943,217.125 M211.873,219.411
	c-0.118,0.4-0.212,0.801-0.283,1.225c0,0.707,0.283,1.319,0.824,1.743c0.565,0.425,1.272,0.684,2.144,0.73
	c0.259-0.07,0.542-0.094,0.848-0.094c1.06-0.212,2.262-0.73,3.604-1.626c1.343-0.848,3.063-2.191,5.183-4.005l0.471,1.932
	c-1.672,1.861-3.228,3.369-4.712,4.547c-1.484,1.178-2.851,2.05-4.146,2.592c-1.272,0.565-2.45,0.824-3.51,0.824
	c-1.602,0-2.851-0.565-3.793-1.743c-0.942-1.154-1.437-2.662-1.484-4.523c0-1.955,0.589-3.911,1.744-5.89
	c1.131-1.979,2.662-3.628,4.57-4.924c1.885-1.296,3.887-2.003,5.984-2.097c2.403,0,3.628,0.824,3.628,2.474
	c0,0.989-0.377,1.955-1.083,2.897c-0.542,0.777-1.272,1.461-2.144,2.12c-0.872,0.66-1.814,1.226-2.78,1.696
	c-0.942,0.495-1.767,0.872-2.403,1.107C213.875,218.657,212.98,219.009,211.873,219.411z"/>
<path fill-rule="evenodd" clip-rule="evenodd" d="M248.39,217.125c1.414-0.541,2.639-1.201,3.676-1.955s1.838-1.508,2.379-2.215
	c0.566-0.73,0.849-1.271,0.849-1.648c0-0.118-0.023-0.213-0.047-0.26c-0.048-0.047-0.071-0.07-0.071-0.094
	c-0.848,0-1.979,0.542-3.393,1.602C250.369,213.615,249.238,215.146,248.39,217.125 M248.296,219.411
	c-0.117,0.4-0.188,0.801-0.283,1.225c0,0.707,0.283,1.319,0.849,1.743c0.542,0.425,1.272,0.684,2.144,0.73
	c0.236-0.07,0.519-0.094,0.825-0.094c1.06-0.212,2.262-0.73,3.628-1.626c1.343-0.848,3.063-2.191,5.16-4.005l0.471,1.932
	c-1.649,1.861-3.228,3.369-4.688,4.547c-1.484,1.178-2.874,2.05-4.146,2.592c-1.296,0.565-2.474,0.824-3.534,0.824
	c-1.578,0-2.851-0.565-3.793-1.743c-0.942-1.154-1.414-2.662-1.46-4.523c0-1.955,0.565-3.911,1.72-5.89
	c1.154-1.979,2.663-3.628,4.571-4.924s3.887-2.003,5.984-2.097c2.402,0,3.628,0.824,3.628,2.474c0,0.989-0.354,1.955-1.061,2.897
	c-0.565,0.777-1.272,1.461-2.167,2.12c-0.872,0.66-1.791,1.226-2.757,1.696c-0.966,0.495-1.767,0.872-2.427,1.107
	C250.322,218.657,249.427,219.009,248.296,219.411z"/>
<path fill-rule="evenodd" clip-rule="evenodd" d="M135.139,215.334c-1.154,0.777-2.285,1.649-3.439,2.662
	c-1.131,1.013-2.121,1.955-2.969,2.827c-0.824,0.872-1.578,1.673-2.214,2.403c-0.636,0.754-1.084,1.225-1.272,1.461
	c-0.848,0.942-1.508,1.46-2.002,1.531c-1.107-0.212-1.649-1.885-1.649-4.995c0-1.508,0.235-2.944,0.66-4.382
	c0.542-1.484,1.531-3.322,2.921-5.489c1.414-2.191,3.016-4.406,4.83-6.668c1.837-2.262,3.581-4.193,5.23-5.771
	c1.414-1.414,2.498-2.45,3.298-3.087c0.778-0.683,1.602-1.013,2.427-1.013c0.519,0,0.99,0.188,1.39,0.542
	c0.165,0.235,0.235,0.471,0.235,0.684c0,1.908-3.039,6.267-9.165,13.122c-1.178,1.296-2.097,2.309-2.733,3.039
	c-0.683,0.73-1.154,1.296-1.484,1.673c-0.33,0.377-0.848,0.942-1.531,1.696c-0.66,0.754-1.579,1.768-2.756,3.063v1.791
	c1.319-1.107,2.497-2.144,3.581-3.086c1.06-0.942,1.979-1.721,2.709-2.333c0.754-0.636,1.46-1.178,2.12-1.625
	c0.118-0.071,0.613-0.401,1.484-0.99c0.848-0.589,1.531-1.013,2.026-1.248c0.519-0.26,0.99-0.377,1.438-0.377
	c0.495,0,0.966,0.235,1.437,0.683c0.448,0.472,0.683,0.966,0.683,1.508c0,0.4-0.141,0.849-0.424,1.296
	c-0.283,0.472-0.778,1.107-1.508,1.956c-0.707,0.848-1.202,1.46-1.508,1.837c-0.047,0.071-0.236,0.354-0.565,0.825
	c-0.33,0.471-0.613,0.919-0.801,1.319c-0.212,0.4-0.33,0.777-0.354,1.107c0.188,0.424,0.401,0.683,0.66,0.729
	c1.296,0,3.534-1.201,6.691-3.581l0.283,2.073c-4.193,3.511-7.232,5.561-9.165,6.173c-0.589,0.142-1.037,0.212-1.343,0.212
	c-1.272,0-1.908-0.942-1.908-2.779c0.07-1.014,0.4-2.026,0.918-3.087c0.542-1.06,1.178-2.05,1.861-2.992
	c0.707-0.919,1.367-1.813,2.002-2.662L135.139,215.334z"/>
<path fill-rule="evenodd" clip-rule="evenodd" d="M112.875,212.06h-2.002c-0.754,0-1.579,0.094-2.45,0.306
	c0.848-1.555,1.555-2.709,2.097-3.486c0.565-0.777,1.107-1.343,1.649-1.696c0.542-0.354,1.107-0.589,1.72-0.707
	c0.612-0.095,1.602-0.188,3.016-0.283c0.989-1.696,1.861-2.851,2.591-3.416c0.73-0.565,1.602-0.848,2.568-0.848
	c0.824,0,1.249,0.282,1.249,0.871c0,0.59-0.565,1.673-1.72,3.204l2.921,0.188c-0.377,0.849-0.825,1.721-1.296,2.687
	s-0.896,1.673-1.319,2.12c-0.424,0.471-0.919,0.801-1.508,1.013s-1.414,0.307-2.427,0.307c-0.118,0-0.306,0-0.565-0.023
	s-0.471-0.023-0.612-0.023c-1.414,1.908-2.474,3.651-3.157,5.254c-0.683,1.578-1.06,2.874-1.107,3.934
	c0.094,0.565,0.236,0.967,0.424,1.202c0.165,0.212,0.518,0.4,1.013,0.519c0.612-0.024,1.295-0.33,2.12-0.872
	c0.801-0.542,2.756-2.003,5.89-4.358l0.283,2.19c-1.626,1.603-3.086,2.922-4.382,4.006c-1.319,1.107-2.639,2.002-4.005,2.709
	c-1.39,0.707-2.663,1.061-3.911,1.061c-0.801-0.118-1.39-0.448-1.791-1.037c-0.4-0.565-0.589-1.296-0.589-2.19
	c0-1.391,0.4-2.992,1.225-4.83l-0.094-0.095l-2.379,1.979l-0.565-1.885c1.837-1.461,3.251-2.757,4.264-3.84
	C111.038,214.911,112.004,213.591,112.875,212.06"/>
<path fill-rule="evenodd" clip-rule="evenodd" d="M32.867,212.672l7.822-8.858c0.424-0.448,0.872-0.942,1.39-1.508
	c0.471-0.565,0.919-1.154,1.296-1.72c0.377-0.589,0.565-1.107,0.565-1.579c0-0.424-0.142-0.73-0.448-0.942s-0.66-0.329-1.084-0.329
	c-1.083,0-2.733,0.353-4.971,1.036c-2.215,0.684-4.453,1.461-6.644,2.332c-2.238,0.872-3.699,1.508-4.5,1.885
	c0.518,0.095,0.754,0.354,0.754,0.73c0,0.472-0.707,0.942-2.097,1.461c-0.683,0.188-1.531,0.565-2.521,1.131
	c-0.99,0.565-1.861,1.061-2.639,1.484c-0.754,0.4-1.484,0.684-2.191,0.801c-0.895,0-1.39-0.754-1.437-2.215
	c0.023-1.154,0.283-2.402,0.825-3.745c0.518-1.319,1.06-2.145,1.602-2.403c1.696-0.989,3.628-1.908,5.772-2.804
	c2.144-0.872,4.358-1.649,6.644-2.332c2.285-0.66,4.57-1.179,6.879-1.579c2.309-0.4,4.453-0.589,6.432-0.589
	c1.366,0.047,2.426,0.495,3.157,1.343c0.754,0.849,1.107,1.908,1.107,3.181c0,1.979-0.777,3.911-2.356,5.772l-7.445,8.27
	l7.162-0.825l8.293-10.932c0.989-1.319,1.767-2.262,2.285-2.827c0.542-0.565,1.013-0.871,1.414-0.871
	c0.212,0,0.377,0.141,0.542,0.424c0.141,0.282,0.212,0.636,0.212,1.084c0,1.106-0.495,2.332-1.484,3.651l-7.539,9.565h1.626
	c1.908,0,3.534,0.377,4.853,1.107c-2.285,1.908-4.17,4.099-5.654,6.572c-0.895-0.259-1.837-0.4-2.827-0.4h-1.908
	c-0.33,0.542-0.707,1.131-1.084,1.744c-0.4,0.612-0.707,1.225-0.966,1.813c-0.235,0.565-0.377,1.131-0.4,1.696
	c0.047,0.095,0.071,0.235,0.071,0.448l0.471,2.167c-0.377,0-0.73,0.095-1.107,0.212c-0.354,0.142-0.848,0.354-1.461,0.637
	c-0.636,0.282-1.083,0.494-1.366,0.589c-0.283,0.117-0.589,0.165-0.848,0.165c-0.33,0-0.589-0.071-0.73-0.236
	c-0.165-0.141-0.283-0.354-0.33-0.612c-0.047-0.235-0.094-0.495-0.165-0.754c0.047-0.801,0.354-1.955,0.895-3.439
	c0.565-1.484,1.225-2.992,1.956-4.523l-8.576,1.272l-4.782,5.771c-0.825,1.885-1.885,2.827-3.11,2.827
	c-0.471,0-0.896-0.212-1.272-0.636s-0.589-0.919-0.636-1.461c0.118-0.659,0.259-1.107,0.448-1.319l3.652-4.759
	c-0.66,0.142-1.296,0.212-1.956,0.212c-1.861,0-2.851-0.707-2.945-2.097c0-0.519,0.141-1.037,0.424-1.603
	c0.259-0.542,0.613-1.013,1.061-1.366c0.424-0.354,0.824-0.542,1.225-0.542c0.377,0,0.636,0.118,0.824,0.283
	C26.271,214.18,28.886,213.568,32.867,212.672"/>
<path fill-rule="evenodd" clip-rule="evenodd" d="M86.183,213.143v-0.117c-2.662,0.989-4.759,1.813-6.314,2.474
	c-1.531,0.659-2.945,1.555-4.217,2.662c-1.296,1.131-1.932,2.427-1.932,3.863c0,0.542,0.259,0.872,0.824,0.99
	C76.17,222.944,80.057,219.646,86.183,213.143 M88.986,211.777c0.824,0.447,1.249,1.037,1.249,1.791c0,0.801-0.4,1.648-1.154,2.591
	c-1.838,2.215-2.757,3.864-2.804,4.948c0.047,0.659,0.424,1.036,1.154,1.131c0.825,0,1.791-0.33,2.875-0.967
	c1.083-0.636,2.426-1.648,4.028-3.016l0.354,1.979c-0.895,0.966-2.05,2.05-3.439,3.228c-1.39,1.154-2.78,2.168-4.17,2.992
	c-1.366,0.848-2.497,1.249-3.345,1.249c-1.131-0.26-1.744-1.061-1.838-2.403c0.118-1.508,0.707-3.393,1.838-5.654l-0.094-0.095
	c-0.118,0.095-1.013,0.849-2.733,2.31c-1.72,1.437-3.039,2.497-3.958,3.18c-0.896,0.684-1.673,1.131-2.285,1.367
	c-0.519,0-1.107-0.307-1.791-0.872c-0.684-0.589-1.272-1.343-1.767-2.238c-0.495-0.919-0.73-1.813-0.73-2.686
	c0-0.565,0.023-0.966,0.094-1.154c0.33-1.366,1.131-2.686,2.379-4.005c1.249-1.319,2.733-2.475,4.453-3.487
	c1.72-1.036,3.439-1.885,5.183-2.521c1.743-0.637,3.251-1.037,4.594-1.154h0.471c0.707,0,1.39,0.212,2.003,0.659
	c0.636,0.447,0.966,1.013,0.966,1.72C90.518,211.046,89.999,211.423,88.986,211.777z"/>
<path fill-rule="evenodd" clip-rule="evenodd" d="M59.654,217.125c1.414-0.541,2.639-1.201,3.675-1.955s1.838-1.508,2.38-2.215
	c0.565-0.73,0.848-1.271,0.848-1.648c0-0.118-0.024-0.213-0.047-0.26s-0.047-0.07-0.071-0.094c-0.848,0-1.979,0.542-3.393,1.602
	C61.633,213.615,60.502,215.146,59.654,217.125 M59.56,219.411c-0.094,0.4-0.188,0.801-0.283,1.225c0,0.707,0.283,1.319,0.848,1.743
	c0.542,0.425,1.272,0.684,2.144,0.73c0.236-0.07,0.519-0.094,0.825-0.094c1.06-0.212,2.262-0.73,3.628-1.626
	c1.343-0.848,3.063-2.191,5.16-4.005l0.471,1.932c-1.649,1.861-3.228,3.369-4.688,4.547c-1.484,1.178-2.874,2.05-4.146,2.592
	c-1.272,0.565-2.45,0.824-3.534,0.824c-1.579,0-2.851-0.565-3.77-1.743c-0.942-1.154-1.437-2.662-1.484-4.523
	c0-1.955,0.565-3.911,1.72-5.89c1.155-1.979,2.663-3.628,4.571-4.924s3.887-2.003,5.984-2.097c2.427,0,3.628,0.824,3.628,2.474
	c0,0.989-0.354,1.955-1.06,2.897c-0.565,0.777-1.272,1.461-2.144,2.12c-0.896,0.66-1.814,1.226-2.78,1.696
	c-0.966,0.495-1.767,0.872-2.426,1.107C61.586,218.657,60.691,219.009,59.56,219.411z"/>
<path fill-rule="evenodd" clip-rule="evenodd" d="M99.282,212.955c1.131-0.989,2.474-2.567,3.981-4.712
	c1.531-2.167,2.615-4.17,3.275-6.031c-0.801,0.565-1.696,1.484-2.686,2.733c-0.989,1.248-1.908,2.615-2.733,4.052
	C100.295,210.458,99.682,211.777,99.282,212.955 M98.316,217.243c-0.071,0.307-0.142,0.73-0.188,1.249
	c-0.047,0.542-0.071,0.871-0.094,0.966c0.094,2.12,0.942,3.157,2.568,3.157c2.073,0,4.735-1.603,7.916-4.854l0.612,1.555
	c-0.565,0.612-1.319,1.414-2.238,2.427c-0.919,0.989-1.838,1.861-2.733,2.615c-0.872,0.73-1.814,1.343-2.804,1.813
	c-1.013,0.495-2.026,0.73-3.016,0.73c-1.225,0-2.215-0.424-2.945-1.225c-0.73-0.825-1.155-1.838-1.249-3.063
	c-0.07-0.919-0.094-1.532-0.094-1.838c0-2.686,0.495-5.324,1.484-7.846c0.99-2.544,2.379-4.971,4.146-7.304
	c1.767-2.332,3.935-4.712,6.456-7.091c1.602-1.484,2.662-2.215,3.18-2.215c0.495,0,0.73,0.636,0.73,1.908
	c0,1.768-0.354,3.511-1.06,5.23c-0.707,1.743-1.579,3.322-2.615,4.806c-1.06,1.484-2.309,3.04-3.77,4.688
	C100.79,214.958,99.353,216.395,98.316,217.243z"/>
<path fill-rule="evenodd" clip-rule="evenodd" d="M336.269,213.473c1.105-1.249,2.52-2.921,4.217-4.994
	c1.695-2.098,3.016-3.699,3.957-4.83c0.943-1.131,2.027-2.332,3.275-3.651c1.248-1.296,2.521-2.45,3.816-3.464
	c1.648-1.248,2.709-2.05,3.205-2.379c0.494-0.33,0.965-0.495,1.436-0.495c0.566,0,1.178,0.259,1.791,0.801
	c0.637,0.519,1.154,1.178,1.578,1.932c0.447,0.754,0.637,1.438,0.637,2.026c0,0.896-0.447,2.05-1.391,3.511
	c-0.188,0.282-0.871,1.343-2.096,3.204c-1.201,1.861-2.285,3.558-3.252,5.089c-0.965,1.555-1.719,2.827-2.285,3.84
	c-0.824,1.555-1.484,2.945-2.025,4.146c-0.543,1.178-0.826,2.215-0.85,3.11c0.096,0.989,0.566,1.508,1.344,1.508
	c0.707,0,2.049-0.919,3.957-2.733c1.934-1.813,3.676-3.628,5.207-5.442l0.283,2.474c-0.754,1.037-1.672,2.238-2.779,3.534
	c-1.084,1.319-2.285,2.662-3.652,4.005c-1.344,1.344-2.732,2.475-4.123,3.417c-1.414,0.918-2.662,1.39-3.77,1.39
	c-1.768,0-2.779-1.319-3.016-3.935c0.023-1.178,0.26-2.427,0.684-3.77c0.447-1.343,0.941-2.568,1.461-3.675
	c0.518-1.084,0.895-1.861,1.084-2.333l7.232-13.735l-0.094-0.094l-7.258,7.327c-0.988,0.989-2.025,2.19-3.109,3.533
	c-1.107,1.344-2.215,2.78-3.322,4.288c-1.107,1.484-2.238,3.039-3.369,4.642c-1.131,1.578-1.789,2.474-1.932,2.686
	c-0.824,1.178-1.365,1.908-1.648,2.215c-0.283,0.306-0.613,0.471-1.014,0.471c-0.613,0-1.295-0.329-2.025-0.942
	c-0.707-0.636-1.131-1.271-1.227-1.932c0.143-0.612,0.307-1.131,0.52-1.508c1.531-2.662,3.275-5.819,5.23-9.471
	c1.955-3.652,3.416-6.644,4.404-8.93c0.684-1.602,1.014-2.732,1.014-3.416c0-0.636-0.33-0.966-1.014-0.966
	c-0.518,0-1.225,0.235-2.096,0.684c-1.861,0.896-4.594,2.427-8.152,4.57c-0.66,0.424-1.438,0.942-2.285,1.555
	c-0.871,0.613-1.555,1.084-2.025,1.367c-0.471,0.282-0.896,0.447-1.225,0.494c-0.426-0.117-0.637-0.494-0.637-1.107
	c0-1.06,0.117-2.097,0.354-3.133c0.234-1.037,0.824-2.238,1.719-3.604c0.896-1.391,2.238-2.852,4.006-4.43
	c1.555-1.319,2.709-1.979,3.439-1.979c0.189,0,0.283,0.117,0.283,0.377c0,0.259-0.26,0.683-0.754,1.295
	c-0.52,0.613-1.297,1.344-2.355,2.215c1.201-0.707,2.355-1.39,3.486-2.026c1.131-0.659,2.238-1.248,3.299-1.767
	c1.035-0.519,2.119-0.942,3.273-1.272c1.131-0.354,2.262-0.518,3.393-0.518c2.145,0,3.205,0.942,3.205,2.827
	c0,0.259-0.07,0.777-0.189,1.531c-0.281,1.225-0.73,2.567-1.389,4.052c-0.66,1.531-1.414,3.063-2.262,4.618
	c-0.826,1.602-2.215,4.146-4.17,7.704V213.473z"/>
<path fill-rule="evenodd" clip-rule="evenodd" d="M424.286,214.934l-0.094-0.095c-0.801,0.212-1.744,0.425-2.852,0.66
	s-1.768,0.377-2.002,0.471c-0.424,0.707-0.896,1.343-1.391,1.908c-0.494,0.542-1.225,1.272-2.238,2.191
	c-0.988,0.896-1.648,1.531-2.002,1.861l-0.189-2.073c0.967-0.801,2.004-1.979,3.111-3.604c-0.85,0-1.297-0.448-1.297-1.319
	c0-1.014,0.473-2.215,1.414-3.558s2.168-2.474,3.723-3.393c0.354-0.118,0.66-0.188,0.871-0.188c0.494,0,0.73,0.307,0.73,0.872
	c0,0.353-0.117,0.801-0.354,1.319c0.99-0.142,1.979-0.26,3.016-0.401c1.014-0.164,1.791-0.259,2.309-0.329
	c0.543-0.071,0.943-0.095,1.227-0.095c0.658,0,1.105,0.33,1.389,1.014c0.307,0.659,0.424,1.39,0.424,2.19
	c0,0.448-0.023,0.754-0.094,0.872c-0.07,0.235-0.471,0.683-1.225,1.39c-0.754,0.73-1.344,1.296-1.768,1.72
	c-0.424,0.4-0.848,0.942-1.271,1.603c-0.66,1.225-1.014,2.12-1.084,2.662c0.094,0.471,0.236,0.777,0.471,0.989
	c0.213,0.188,0.52,0.33,0.99,0.424c1.154-0.07,3.346-1.555,6.502-4.476l0.283,1.861c-2.004,2.332-3.889,4.146-5.654,5.441
	c-1.768,1.296-3.086,1.979-3.982,2.05c-0.777,0-1.484-0.306-2.119-0.895c-0.613-0.59-1.014-1.461-1.131-2.568
	c0-1.484,0.354-2.851,1.059-4.076C421.765,218.115,422.825,216.63,424.286,214.934"/>
<path fill-rule="evenodd" clip-rule="evenodd" d="M404.167,220.423l-0.096-0.188c-1.436,1.602-2.566,2.78-3.369,3.558
	c-0.777,0.801-1.555,1.413-2.262,1.861c-0.729,0.447-1.412,0.659-2.096,0.659c-1.061-0.142-1.885-0.659-2.451-1.508
	c-0.564-0.848-0.848-1.932-0.848-3.251c0-1.814,0.447-3.676,1.297-5.584c0.895-1.932,2.072-3.533,3.557-4.782
	c1.508-1.249,3.133-1.885,4.877-1.885c1.061,0,1.578,0.282,1.578,0.872c0,0.518-0.377,1.225-1.131,2.097
	c-1.695,1.979-3.203,3.439-4.547,4.382c-1.342,1.036-2.096,2.309-2.238,3.863c0.07,0.142,0.094,0.307,0.094,0.495
	c0,0.165,0.119,0.307,0.33,0.377c1.084-0.212,2.145-0.707,3.182-1.438c1.061-0.729,2.072-1.555,3.016-2.474
	c0.965-0.919,2.002-1.908,3.109-3.016c3.063-3.204,5.371-5.277,6.973-6.267c0.143-0.07,0.283-0.094,0.473-0.094
	c0.33,0,0.588,0.259,0.777,0.754c0.188,0.518,0.283,1.131,0.283,1.813c0,0.612-0.049,1.061-0.166,1.319
	c-0.471,0.684-1.295,1.673-2.521,2.898c-1.248,1.225-2.166,2.309-2.803,3.204c-0.637,0.918-1.014,1.955-1.107,3.133
	c0.141,0.377,0.283,0.612,0.377,0.707c0.094,0.094,0.33,0.212,0.684,0.307c1.438-0.142,3.863-1.696,7.279-4.688l0.26,2.097
	c-1.744,1.861-3.229,3.369-4.477,4.5s-2.355,1.979-3.322,2.544c-0.965,0.565-1.838,0.896-2.615,0.942
	c-0.895,0-1.625-0.282-2.191-0.801c-0.564-0.542-0.895-1.343-0.941-2.427C403.247,223.085,403.601,221.766,404.167,220.423"/>
<path fill-rule="evenodd" clip-rule="evenodd" d="M384.706,212.06h-2.002c-0.754,0-1.578,0.094-2.451,0.306
	c0.848-1.555,1.555-2.709,2.098-3.486c0.541-0.777,1.084-1.343,1.648-1.696c0.543-0.354,1.107-0.589,1.697-0.707
	c0.635-0.095,1.625-0.188,3.016-0.283c1.012-1.696,1.861-2.851,2.615-3.416c0.73-0.565,1.578-0.848,2.566-0.848
	c0.826,0,1.25,0.282,1.25,0.871c0,0.59-0.59,1.673-1.721,3.204l2.922,0.188c-0.4,0.849-0.824,1.721-1.297,2.687
	c-0.471,0.966-0.918,1.673-1.318,2.12c-0.424,0.471-0.918,0.801-1.508,1.013c-0.613,0.212-1.414,0.307-2.426,0.307
	c-0.119,0-0.33,0-0.566-0.023c-0.26-0.023-0.471-0.023-0.613-0.023c-1.412,1.908-2.473,3.651-3.156,5.254
	c-0.684,1.578-1.061,2.874-1.107,3.934c0.094,0.565,0.236,0.967,0.4,1.202c0.189,0.212,0.543,0.4,1.037,0.519
	c0.588-0.024,1.295-0.33,2.096-0.872c0.826-0.542,2.781-2.003,5.914-4.358l0.283,2.19c-1.625,1.603-3.109,2.922-4.406,4.006
	c-1.295,1.107-2.639,2.002-3.98,2.709c-1.391,0.707-2.686,1.061-3.912,1.061c-0.801-0.118-1.389-0.448-1.789-1.037
	c-0.402-0.565-0.59-1.296-0.59-2.19c0-1.391,0.4-2.992,1.225-4.83l-0.094-0.095l-2.379,1.979l-0.566-1.885
	c1.814-1.461,3.252-2.757,4.264-3.84C382.868,214.911,383.812,213.591,384.706,212.06"/>
<path fill-rule="evenodd" clip-rule="evenodd" d="M372.03,213.143v-0.117c-2.686,0.989-4.781,1.813-6.313,2.474
	c-1.555,0.659-2.945,1.555-4.242,2.662c-1.295,1.131-1.932,2.427-1.932,3.863c0,0.542,0.283,0.872,0.85,0.99
	C361.995,222.944,365.882,219.646,372.03,213.143 M374.812,211.777c0.824,0.447,1.248,1.037,1.248,1.791
	c0,0.801-0.377,1.648-1.154,2.591c-1.814,2.215-2.756,3.864-2.803,4.948c0.047,0.659,0.447,1.036,1.178,1.131
	c0.801,0,1.766-0.33,2.85-0.967c1.084-0.636,2.428-1.648,4.029-3.016l0.377,1.979c-0.918,0.966-2.074,2.05-3.463,3.228
	c-1.391,1.154-2.781,2.168-4.17,2.992c-1.367,0.848-2.498,1.249-3.346,1.249c-1.131-0.26-1.744-1.061-1.814-2.403
	c0.094-1.508,0.684-3.393,1.814-5.654l-0.094-0.095c-0.119,0.095-1.014,0.849-2.734,2.31c-1.719,1.437-3.039,2.497-3.957,3.18
	c-0.896,0.684-1.674,1.131-2.285,1.367c-0.496,0-1.107-0.307-1.791-0.872c-0.684-0.589-1.271-1.343-1.768-2.238
	c-0.494-0.919-0.73-1.813-0.73-2.686c0-0.565,0.023-0.966,0.096-1.154c0.354-1.366,1.131-2.686,2.379-4.005s2.732-2.475,4.453-3.487
	c1.719-1.036,3.463-1.885,5.184-2.521c1.742-0.637,3.273-1.037,4.594-1.154h0.471c0.707,0,1.391,0.212,2.025,0.659
	c0.637,0.447,0.943,1.013,0.943,1.72C376.343,211.046,375.849,211.423,374.812,211.777z"/>
<path fill-rule="evenodd" clip-rule="evenodd" d="M446.739,213.143v-0.117c-2.664,0.989-4.76,1.813-6.291,2.474
	c-1.555,0.659-2.969,1.555-4.24,2.662c-1.297,1.131-1.934,2.427-1.934,3.863c0,0.542,0.283,0.872,0.826,0.99
	C436.726,222.944,440.612,219.646,446.739,213.143 M449.542,211.777c0.824,0.447,1.248,1.037,1.248,1.791
	c0,0.801-0.4,1.648-1.154,2.591c-1.838,2.215-2.756,3.864-2.803,4.948c0.047,0.659,0.424,1.036,1.178,1.131
	c0.801,0,1.768-0.33,2.85-0.967c1.084-0.636,2.428-1.648,4.029-3.016l0.354,1.979c-0.895,0.966-2.049,2.05-3.439,3.228
	c-1.391,1.154-2.779,2.168-4.17,2.992c-1.367,0.848-2.498,1.249-3.346,1.249c-1.131-0.26-1.744-1.061-1.838-2.403
	c0.117-1.508,0.707-3.393,1.838-5.654l-0.094-0.095c-0.119,0.095-1.014,0.849-2.732,2.31c-1.721,1.437-3.041,2.497-3.959,3.18
	c-0.895,0.684-1.672,1.131-2.285,1.367c-0.494,0-1.107-0.307-1.791-0.872c-0.684-0.589-1.271-1.343-1.766-2.238
	c-0.496-0.919-0.73-1.813-0.73-2.686c0-0.565,0.023-0.966,0.094-1.154c0.33-1.366,1.131-2.686,2.379-4.005s2.732-2.475,4.453-3.487
	c1.721-1.036,3.439-1.885,5.184-2.521c1.742-0.637,3.273-1.037,4.594-1.154h0.471c0.707,0,1.391,0.212,2.027,0.659
	c0.611,0.447,0.941,1.013,0.941,1.72C451.073,211.046,450.556,211.423,449.542,211.777z"/>
<path fill-rule="evenodd" clip-rule="evenodd" d="M459.837,212.955c1.131-0.989,2.475-2.567,4.006-4.712
	c1.531-2.167,2.592-4.17,3.252-6.031c-0.803,0.565-1.697,1.484-2.688,2.733c-0.988,1.248-1.908,2.615-2.732,4.052
	C460.851,210.458,460.237,211.777,459.837,212.955 M458.872,217.243c-0.07,0.307-0.119,0.73-0.166,1.249
	c-0.07,0.542-0.094,0.871-0.117,0.966c0.094,2.12,0.941,3.157,2.568,3.157c2.072,0,4.734-1.603,7.916-4.854l0.635,1.555
	c-0.588,0.612-1.318,1.414-2.262,2.427c-0.918,0.989-1.836,1.861-2.709,2.615c-0.895,0.73-1.838,1.343-2.826,1.813
	c-1.014,0.495-2.027,0.73-3.016,0.73c-1.225,0-2.215-0.424-2.945-1.225c-0.73-0.825-1.154-1.838-1.248-3.063
	c-0.072-0.919-0.096-1.532-0.096-1.838c0-2.686,0.496-5.324,1.484-7.846c0.99-2.544,2.381-4.971,4.146-7.304
	c1.768-2.332,3.936-4.712,6.455-7.091c1.604-1.484,2.664-2.215,3.182-2.215c0.494,0,0.73,0.636,0.73,1.908
	c0,1.768-0.354,3.511-1.061,5.23c-0.684,1.743-1.578,3.322-2.615,4.806c-1.061,1.484-2.309,3.04-3.77,4.688
	C461.345,214.958,459.907,216.395,458.872,217.243z"/>
<path fill-rule="evenodd" clip-rule="evenodd" d="M473.854,212.955c1.131-0.989,2.451-2.567,3.982-4.712
	c1.531-2.167,2.615-4.17,3.252-6.031c-0.801,0.565-1.697,1.484-2.686,2.733c-0.967,1.248-1.885,2.615-2.711,4.052
	C474.868,210.458,474.257,211.777,473.854,212.955 M472.89,217.243c-0.094,0.307-0.141,0.73-0.189,1.249
	c-0.047,0.542-0.094,0.871-0.094,0.966c0.07,2.12,0.92,3.157,2.545,3.157c2.096,0,4.734-1.603,7.939-4.854l0.613,1.555
	c-0.566,0.612-1.32,1.414-2.238,2.427c-0.943,0.989-1.838,1.861-2.734,2.615c-0.895,0.73-1.836,1.343-2.826,1.813
	c-0.99,0.495-2.002,0.73-3.016,0.73c-1.225,0-2.191-0.424-2.922-1.225c-0.73-0.825-1.154-1.838-1.248-3.063
	c-0.07-0.919-0.117-1.532-0.117-1.838c0-2.686,0.494-5.324,1.508-7.846c0.988-2.544,2.355-4.971,4.146-7.304
	c1.766-2.332,3.91-4.712,6.455-7.091c1.578-1.484,2.662-2.215,3.18-2.215c0.471,0,0.73,0.636,0.73,1.908
	c0,1.768-0.354,3.511-1.061,5.23c-0.707,1.743-1.578,3.322-2.639,4.806c-1.061,1.484-2.309,3.04-3.746,4.688
	C475.339,214.958,473.903,216.395,472.89,217.243z"/>
</svg>
